<svg xmlns="http://www.w3.org/2000/svg" viewBox="0 0 674.24 364.06"><defs><style>.cls-1{fill:#a93439;}.cls-2{fill:#d12a2f;}.cls-3{fill:#55565a;}</style></defs><title>Asset 2</title><g id="Layer_2" data-name="Layer 2"><g id="Capa_1" data-name="Capa 1"><path class="cls-1" d="M588.71,79.56c-2.38-17.64-4.19-31-4.61-33.79-1.43-10-9.36-16.55-9.36-16.55A28.66,28.66,0,0,0,552,23.5h0L473.13,41.33c-14.64,3.54-14.61,9,.3,12.59Z"/><path class="cls-2" d="M552,23.5a28.66,28.66,0,0,1,22.75,5.71s7.94,6.53,9.36,16.55,20.27,150.55,20.27,150.55,1.08,10.06,4.27,11.78,6.14-5.23,6.73-6.86L672.88,22.55s4.45-11-2.79-17.7c0,0-4.79-6.44-15.29-4.48S552,23.5,552,23.5"/><polygon class="cls-3" points="30.69 105.73 30.69 227.59 83.68 227.59 83.68 255.92 0 255.92 0 105.73 30.69 105.73"/><path class="cls-3" d="M238.54,180.59c0,47.43-39.44,75.32-75.94,75.32-42.05,0-75.92-33.91-75.92-75.32a75.4,75.4,0,0,1,75.92-75.3c42,0,75.94,33.69,75.94,75.3m-121.21,0c0,26.18,20.59,47,45.27,47,21.89,0,45.26-17.57,45.26-47,0-26.39-20.79-47-45.26-47-24.88,0-45.27,21-45.27,47"/><polygon class="cls-3" points="236.13 105.73 268.75 105.73 307.61 205.92 346.41 105.73 378.81 105.73 320.66 255.92 294.28 255.92 236.13 105.73"/><rect class="cls-3" x="390.74" y="105.73" width="30.69" height="150.19"/><path class="cls-3" d="M514.25,147.55c-6.85-7.92-12.2-14.57-25.53-14.57-7.73,0-13.52,5.13-13.52,12.85,0,7.32,5.36,10.53,19.5,16.32,21.05,8.58,45.3,18,45.3,50,.22,29.82-26.81,44.21-52.57,44.21-28.95,0-50.63-21-51.7-27.9L458,210.2c5.79,9,14.39,17.59,29.39,17.59,14.15,0,22.11-5.36,22.11-15.66,0-12.85-9.47-16.73-26.41-23.8-15.43-6.23-38.6-16.74-38.6-42.5,0-24,21-41.19,44.19-41.19,24,0,37.52,11.16,46.55,23.62Z"/><path class="cls-3" d="M0,305.52a60.47,60.47,0,0,1,11.19-.94c6.23,0,10.25,1.14,13.06,3.68a11.25,11.25,0,0,1,3.55,8.58c0,6-3.75,9.91-8.51,11.52v.2c3.48,1.2,5.56,4.42,6.63,9.11,1.47,6.3,2.54,10.65,3.48,12.39h-6c-.74-1.28-1.74-5.16-3-10.79-1.34-6.23-3.75-8.57-9-8.78H5.83v19.56H0Zm5.83,20.56h6C18,326.08,22,322.66,22,317.5c0-5.83-4.22-8.37-10.38-8.44a23.87,23.87,0,0,0-5.76.54Z"/><path class="cls-3" d="M39.39,334.92c.13,8,5.23,11.25,11.12,11.25a21.33,21.33,0,0,0,9-1.68l1,4.22a26.2,26.2,0,0,1-10.79,2c-10,0-15.94-6.57-15.94-16.34S39.53,316.9,49,316.9c10.59,0,13.4,9.31,13.4,15.27a22.38,22.38,0,0,1-.2,2.75Zm17.28-4.22c.07-3.75-1.54-9.58-8.17-9.58-6,0-8.58,5.49-9,9.58Z"/><path class="cls-3" d="M68.87,344a15.44,15.44,0,0,0,7.77,2.34c4.29,0,6.3-2.14,6.3-4.82s-1.68-4.35-6-6c-5.83-2.07-8.57-5.29-8.57-9.18,0-5.23,4.22-9.51,11.19-9.51a16.22,16.22,0,0,1,8,2L86,323.2a12.63,12.63,0,0,0-6.63-1.87c-3.48,0-5.43,2-5.43,4.42,0,2.68,1.94,3.89,6.16,5.5,5.63,2.14,8.51,5,8.51,9.78,0,5.7-4.42,9.71-12.12,9.71a18.48,18.48,0,0,1-9.11-2.21Z"/><path class="cls-3" d="M96.21,302.5h5.89v20.23h.13a10.89,10.89,0,0,1,4.22-4.15,12.1,12.1,0,0,1,6-1.68c4.35,0,11.32,2.68,11.32,13.87v19.29h-5.89V331.44c0-5.23-1.94-9.64-7.5-9.64a8.47,8.47,0,0,0-7.91,5.89,7.13,7.13,0,0,0-.4,2.81v19.56H96.21Z"/><path class="cls-3" d="M151.35,350.06l-.47-4.09h-.2a12.07,12.07,0,0,1-9.91,4.82c-6.56,0-9.91-4.62-9.91-9.31,0-7.84,7-12.12,19.5-12.06v-.67c0-2.68-.74-7.5-7.37-7.5a16.14,16.14,0,0,0-8.44,2.41l-1.34-3.89a20.12,20.12,0,0,1,10.65-2.88c9.91,0,12.33,6.77,12.33,13.26v12.13a45.66,45.66,0,0,0,.54,7.77Zm-.87-16.55c-6.43-.13-13.73,1-13.73,7.3a5.22,5.22,0,0,0,5.56,5.63,8.07,8.07,0,0,0,7.84-5.43,6.14,6.14,0,0,0,.33-1.87Z"/><path class="cls-3" d="M165.69,328.22c0-4.16-.13-7.5-.27-10.59h5.29l.27,5.56h.13a12.74,12.74,0,0,1,11.52-6.3c7.84,0,13.73,6.63,13.73,16.48,0,11.65-7.1,17.41-14.73,17.41-4.29,0-8-1.87-10-5.09h-.13v17.61h-5.83Zm5.83,8.64a13.24,13.24,0,0,0,.27,2.41,9.1,9.1,0,0,0,8.84,6.9c6.23,0,9.85-5.09,9.85-12.53,0-6.5-3.41-12.06-9.65-12.06a10.22,10.22,0,0,0-9.31,9.71Z"/><path class="cls-3" d="M210.37,308.53a3.65,3.65,0,0,1-7.3,0,3.59,3.59,0,0,1,3.68-3.68,3.5,3.5,0,0,1,3.62,3.68m-6.56,9.11h5.89v32.43h-5.89Z"/><path class="cls-3" d="M219.49,326.41c0-3.35-.07-6.09-.27-8.78h5.23l.33,5.36h.13a11.92,11.92,0,0,1,10.72-6.09c4.49,0,11.46,2.68,11.46,13.8v19.36h-5.89V331.37c0-5.23-1.94-9.58-7.5-9.58a8.38,8.38,0,0,0-7.91,6,8.55,8.55,0,0,0-.4,2.75v19.5h-5.9Z"/><path class="cls-3" d="M284.6,317.64c-.13,2.34-.27,5-.27,8.91v18.82c0,7.44-1.47,12-4.62,14.8s-7.71,3.89-11.79,3.89c-3.88,0-8.17-.94-10.79-2.68l1.47-4.49a18.29,18.29,0,0,0,9.51,2.54c6,0,10.45-3.15,10.45-11.32V344.5h-.14a11.57,11.57,0,0,1-10.31,5.43c-8,0-13.8-6.83-13.8-15.81,0-11,7.17-17.21,14.6-17.21,5.63,0,8.71,2.95,10.12,5.63h.13l.27-4.89Zm-6.1,12.79a8.62,8.62,0,0,0-8.57-8.91c-5.63,0-9.64,4.76-9.64,12.26,0,6.36,3.21,11.66,9.58,11.66a8.62,8.62,0,0,0,8.17-6,10.23,10.23,0,0,0,.47-3.15Z"/><path class="cls-3" d="M308.53,305.52a56.18,56.18,0,0,1,10.65-.94c5.83,0,9.58,1,12.39,3.29a9.46,9.46,0,0,1,3.75,8c0,4.36-2.88,8.17-7.64,9.91v.14C332,326.95,337,330.5,337,337.2a12.17,12.17,0,0,1-3.82,9c-3.15,2.88-8.24,4.22-15.61,4.22a67.92,67.92,0,0,1-9-.54ZM314.35,324h5.29c6.16,0,9.78-3.21,9.78-7.57,0-5.29-4-7.37-9.91-7.37a25.13,25.13,0,0,0-5.16.4Zm0,21.64a31.41,31.41,0,0,0,4.89.27c6,0,11.59-2.21,11.59-8.77,0-6.16-5.29-8.71-11.65-8.71h-4.82Z"/><path class="cls-3" d="M371.77,341.22c0,3.35.07,6.3.27,8.84h-5.23l-.34-5.29h-.13a12.2,12.2,0,0,1-10.72,6c-5.09,0-11.19-2.81-11.19-14.2v-19h5.89v18c0,6.16,1.87,10.31,7.23,10.31a8.29,8.29,0,0,0,8.3-8.37v-19.9h5.89Z"/><path class="cls-3" d="M380.75,344a15.44,15.44,0,0,0,7.77,2.34c4.29,0,6.3-2.14,6.3-4.82s-1.68-4.35-6-6c-5.83-2.07-8.57-5.29-8.57-9.18,0-5.23,4.22-9.51,11.18-9.51a16.2,16.2,0,0,1,8,2l-1.47,4.29a12.61,12.61,0,0,0-6.63-1.87c-3.48,0-5.43,2-5.43,4.42,0,2.68,1.94,3.89,6.16,5.5,5.62,2.14,8.51,5,8.51,9.78,0,5.7-4.42,9.71-12.12,9.71a18.47,18.47,0,0,1-9.11-2.21Z"/><path class="cls-3" d="M414.65,308.53a3.65,3.65,0,0,1-7.3,0,3.59,3.59,0,0,1,3.68-3.68,3.5,3.5,0,0,1,3.62,3.68m-6.56,9.11H414v32.43h-5.89Z"/><path class="cls-3" d="M423.76,326.41c0-3.35-.07-6.09-.27-8.78h5.22l.34,5.36h.14a11.92,11.92,0,0,1,10.71-6.09c4.49,0,11.46,2.68,11.46,13.8v19.36h-5.89V331.37c0-5.23-1.95-9.58-7.5-9.58a8.66,8.66,0,0,0-8.31,8.77v19.5h-5.89Z"/><path class="cls-3" d="M464.23,334.92c.13,8,5.22,11.25,11.12,11.25a21.31,21.31,0,0,0,9-1.68l1,4.22a26.21,26.21,0,0,1-10.79,2c-10,0-15.95-6.57-15.95-16.34s5.76-17.48,15.21-17.48c10.59,0,13.39,9.31,13.39,15.27a21.61,21.61,0,0,1-.2,2.75Zm17.28-4.22c.07-3.75-1.54-9.58-8.17-9.58-6,0-8.57,5.49-9,9.58Z"/><path class="cls-3" d="M493.71,344a15.44,15.44,0,0,0,7.77,2.34c4.29,0,6.3-2.14,6.3-4.82s-1.68-4.35-6-6c-5.83-2.07-8.57-5.29-8.57-9.18,0-5.23,4.22-9.51,11.19-9.51a16.21,16.21,0,0,1,8,2l-1.48,4.29a12.61,12.61,0,0,0-6.63-1.87c-3.48,0-5.43,2-5.43,4.42,0,2.68,1.95,3.89,6.16,5.5,5.62,2.14,8.51,5,8.51,9.78,0,5.7-4.42,9.71-12.12,9.71a18.48,18.48,0,0,1-9.11-2.21Z"/><path class="cls-3" d="M520.24,344a15.42,15.42,0,0,0,7.77,2.34c4.29,0,6.3-2.14,6.3-4.82s-1.68-4.35-6-6c-5.83-2.07-8.57-5.29-8.57-9.18,0-5.23,4.22-9.51,11.19-9.51a16.2,16.2,0,0,1,8,2l-1.47,4.29a12.63,12.63,0,0,0-6.63-1.87c-3.48,0-5.43,2-5.43,4.42,0,2.68,1.94,3.89,6.16,5.5,5.62,2.14,8.5,5,8.5,9.78,0,5.7-4.42,9.71-12.12,9.71a18.5,18.5,0,0,1-9.11-2.21Z"/><path class="cls-3" d="M567.61,246.63a9.57,9.57,0,1,1-9.54-9.31,9.35,9.35,0,0,1,9.54,9.31m-16.74,0a7.21,7.21,0,0,0,7.27,7.43,7.12,7.12,0,0,0,7.09-7.38,7.18,7.18,0,1,0-14.35-.05m5.73,4.88h-2.16V242.2a19.13,19.13,0,0,1,3.58-.28,5.81,5.81,0,0,1,3.24.68,2.61,2.61,0,0,1,.9,2,2.36,2.36,0,0,1-1.93,2.15v.12a2.74,2.74,0,0,1,1.71,2.27,7.07,7.07,0,0,0,.68,2.32h-2.32a7.8,7.8,0,0,1-.75-2.27c-.16-1-.74-1.47-1.93-1.47h-1Zm.05-5.28h1c1.2,0,2.16-.39,2.16-1.37s-.62-1.41-2-1.41a5,5,0,0,0-1.19.11Z"/></g></g></svg>