<?xml version="1.0" standalone="no"?>
<!DOCTYPE svg PUBLIC "-//W3C//DTD SVG 20010904//EN"
 "http://www.w3.org/TR/2001/REC-SVG-20010904/DTD/svg10.dtd">
<svg version="1.0" xmlns="http://www.w3.org/2000/svg"
 width="700.000000pt" height="700.000000pt" viewBox="0 0 700.000000 700.000000"
 preserveAspectRatio="xMidYMid meet">
<metadata>
Created by potrace 1.11, written by Peter Selinger 2001-2013
</metadata>
<g transform="translate(0.000000,700.000000) scale(0.100000,-0.100000)"
fill="#000000" stroke="none">
<path d="M6345 6955 c-75 -14 -215 -46 -305 -70 -51 -13 -384 -93 -545 -131
-38 -9 -77 -18 -85 -20 -40 -10 -107 -26 -120 -29 -8 -2 -71 -17 -140 -34
-263 -64 -597 -143 -910 -216 -179 -41 -363 -84 -410 -95 -47 -11 -173 -40
-280 -65 -355 -82 -574 -133 -635 -150 -52 -13 -505 -119 -560 -131 -11 -2
-108 -25 -215 -50 -107 -25 -204 -48 -215 -50 -11 -3 -40 -9 -65 -14 -25 -5
-121 -28 -213 -50 -92 -22 -178 -42 -190 -44 -12 -3 -31 -7 -42 -10 -11 -2
-247 -57 -525 -121 -553 -128 -628 -149 -740 -205 -103 -52 -140 -87 -140
-135 0 -63 44 -93 223 -153 131 -44 232 -72 312 -88 11 -2 130 -28 265 -58
135 -30 256 -57 270 -60 14 -3 117 -26 230 -51 113 -26 216 -49 230 -51 14 -3
33 -7 42 -10 9 -3 27 -7 40 -9 13 -3 52 -11 88 -19 54 -13 631 -141 680 -151
8 -2 69 -15 135 -30 66 -15 138 -31 160 -36 22 -4 49 -10 60 -13 81 -17 445
-98 465 -103 14 -3 34 -8 45 -10 11 -2 47 -9 80 -17 33 -8 105 -24 160 -36 55
-12 127 -28 160 -36 33 -8 69 -16 80 -18 11 -3 74 -17 140 -31 66 -15 131 -29
145 -32 14 -3 30 -6 35 -7 6 -2 38 -9 73 -16 34 -7 62 -13 62 -14 0 -1 18
-119 40 -262 22 -142 43 -275 45 -294 3 -19 10 -60 15 -90 5 -30 12 -73 15
-95 3 -22 8 -51 10 -65 8 -46 24 -155 30 -195 6 -43 13 -88 19 -120 2 -11 7
-42 10 -68 4 -27 9 -56 11 -65 1 -10 6 -39 9 -67 4 -27 15 -104 26 -170 10
-66 21 -138 25 -160 3 -22 10 -65 15 -95 5 -30 12 -73 15 -95 3 -22 19 -125
35 -230 16 -104 32 -208 35 -230 10 -63 13 -84 29 -185 8 -52 17 -113 21 -135
3 -22 7 -51 10 -65 2 -14 9 -59 15 -100 6 -41 13 -86 16 -100 2 -14 6 -45 9
-70 3 -25 8 -52 10 -60 2 -8 7 -35 10 -60 3 -25 15 -101 26 -170 11 -69 22
-138 24 -155 2 -16 7 -48 10 -70 27 -172 35 -225 40 -260 44 -301 91 -450 168
-527 22 -23 39 -23 90 3 48 25 62 40 84 89 8 19 25 58 38 85 12 28 53 154 90
280 37 127 82 282 102 345 19 63 41 138 48 165 8 28 48 167 90 310 43 143 81
274 85 290 8 30 88 303 137 465 14 47 36 123 50 170 13 47 31 108 39 135 8 28
17 57 19 65 3 14 144 493 185 630 10 36 42 144 70 240 28 96 59 204 70 240 11
36 52 175 90 310 39 135 84 286 100 335 15 50 43 142 60 205 27 98 145 503
210 720 335 1124 394 1342 384 1410 -31 213 -78 304 -196 374 -114 68 -275 91
-433 61z"/>
</g>
</svg>
